<svg width="95" height="72" viewBox="0 0 95 72" fill="none" xmlns="http://www.w3.org/2000/svg">
<path d="M37.4738 39.0361C37.7662 52.8 39.0523 67.6627 43.4369 72C41.8877 66.9687 53.2292 66.8819 51.6215 72C56.7954 66.9687 57.5262 43.3735 57.5262 39.0361L51.5046 32.7325V31.8072C52.2064 31.5512 52.5258 31.3065 52.7615 30.4193C54.5756 30.771 55.6195 30.8411 57.4969 30.8819C61.0034 33.9776 62.4305 36.4912 64.6 41.841C70.6081 40.0599 73.7134 38.4631 78.9523 34.9301C82.9556 39.1779 84.8726 44.0319 88.3303 52.7871L88.3354 52.8C87.4877 43.8651 86.3769 36.5783 79.6246 29.4651C74.7069 33.7601 71.8456 35.6798 66.3831 37.388C63.7921 33.2392 62.1452 31.1801 58.52 28.453C56.3517 28.8636 55.2273 28.9036 53.3754 28.6554L53.5215 27.8747C56.0917 27.6669 57.282 27.3173 59.3385 26.6313C63.0356 29.2441 64.613 31.3044 67.3477 35.0747C72.6313 31.9733 75.4094 29.7642 79.6246 25.2723C85.2952 28.1545 88.1639 32.5482 93.0708 42.2747C91.5215 31.8361 85.9969 22.7566 79.6246 19.5181C75.6492 25.2434 72.9372 27.9932 67.7569 31.7783C64.8466 28.016 63.0271 26.3192 59.6308 23.6241C57.3619 25.053 56.0867 25.7471 53.7846 26.1108V25.2434C56.0848 23.842 57.3874 23.076 59.8062 21.8602C63.3678 23.5295 65.174 25.1027 68.1662 28.6554C72.9834 24.4143 75.8538 21.4843 78.9523 15.9614C85.5676 19.4407 89.0499 22.148 94.5908 29.2337C92.1938 21.3398 86.7569 15.1807 77.2569 10.1494C74.3762 17.1095 72.4138 20.4653 68.1662 25.3012C65.4315 22.0465 63.6503 20.4653 59.8062 18.3036C57.4869 20.9708 56.0859 21.9118 53.4923 23.0747L53.0831 21.8602C55.4167 19.6503 56.7271 18.4139 59.3385 16.4819L59.4844 16.5278C63.0774 17.6561 65.1364 18.3027 68.6339 21.8602C71.952 17.4317 73.5726 14.3634 75.5031 6.53494C82.4308 8.44337 88.0138 10.5831 95 18.1301C92.9246 10.6988 78.3092 1.53253 73.1938 0C71.3626 8.51817 70.1915 12.7894 67.4939 18.3036C63.7269 15.5717 60.6831 13.5325 58.1985 12.8675C56.3427 16.0621 55.1008 17.7017 52.3815 20.241L51.5046 18.6795C53.5957 17.4269 53.5206 16.5974 49.4585 14.7181C51.2745 16.5047 51.423 17.1668 50.0138 17.6964C49.5754 17.0892 45.4831 16.9157 44.8985 17.7542C43.584 17.1354 43.8505 16.4192 45.4831 14.7181C42.56 16.1928 40.7669 17.2502 43.4954 18.6795L42.5892 20.241C39.7557 17.4677 38.5392 15.8397 36.86 12.8386C34.2 13.6193 31.1044 15.66 27.5062 18.3325C24.7585 12.4337 23.4903 8.01539 21.7185 0C14.44 2.37108 1.34462 12.0289 0 18.0723C5.98387 11.5267 10.4158 9.21968 19.4969 6.59277C21.0725 13.3241 22.5662 16.7422 26.3077 21.8602C29.3756 18.8108 31.4847 17.7379 35.6323 16.453C38.1726 18.3195 39.5273 19.5195 41.8585 21.8602L41.5077 23.1036C38.611 21.6793 37.2414 20.6063 35.1354 18.3325C31.0189 20.6337 29.3571 22.2345 26.8338 25.3012C22.6097 20.2359 20.4905 17.0744 17.7138 10.1494C7.67658 15.8725 3.09846 20.8193 0.38 29.3205C5.30989 23.3147 8.24927 20.0667 16.0185 15.9904C19.1794 21.3635 21.6186 24.1149 26.8338 28.6843C29.3086 25.5085 31.0399 23.942 35.1354 21.7735L41.1862 25.2145V26.1108C39.1737 25.796 37.8894 25.2198 35.3692 23.5952C31.5244 26.4759 29.8977 28.3304 27.2431 31.7494C21.3393 27.4455 18.9789 24.6935 15.4338 19.547C8.76923 22.4964 3.33231 32.6747 1.92923 42.3036C5.64154 34.641 9.67538 27.788 15.4338 25.359C19.5584 29.6252 22.2653 31.7272 27.5938 35.1036C30.3752 31.429 31.8793 29.314 35.6908 26.6602C37.7481 27.3448 38.9883 27.6235 41.42 27.8458L41.6246 28.6554C39.38 28.8732 38.2436 28.8398 36.5092 28.4241C32.8909 31.226 31.16 33.1934 28.5877 37.388C23.0645 35.5743 20.2054 33.7822 15.4338 29.494C10.4646 33.8892 7.16556 42.5903 6.63538 52.9157C9.4846 44.5641 13.6508 36.9831 16.0185 34.959C21.273 38.436 24.4627 39.878 30.4 41.9277C32.5338 36.7588 33.8309 33.9983 37.4738 30.8819C39.3602 30.8825 40.3995 30.789 42.2092 30.4193C42.4949 31.3224 42.9102 31.6037 43.5246 31.894V32.7325L37.4738 39.0361Z" fill="white"/>
</svg>
