<svg width="24" height="24" viewBox="0 0 24 24" fill="none" xmlns="http://www.w3.org/2000/svg">
<path fill-rule="evenodd" clip-rule="evenodd" d="M6.74263 0C3.01878 0 0 3.01878 0 6.74263V17.2574C0 20.9812 3.01878 24 6.74263 24H17.2574C20.9812 24 24 20.9812 24 17.2574V6.74263C24 3.01878 20.9812 0 17.2574 0H6.74263ZM6.64874 2.21618C4.20089 2.21618 2.21652 4.20056 2.21652 6.64841V17.3517C2.21652 19.7996 4.20089 21.784 6.64874 21.784H17.3049C19.7528 21.784 21.7371 19.7996 21.7371 17.3517V6.6484C21.7371 4.20056 19.7528 2.21618 17.3049 2.21618H6.64874Z" fill="#959698"/>
<path fill-rule="evenodd" clip-rule="evenodd" d="M11.9989 18.2003C15.3973 18.2003 18.1522 15.4454 18.1522 12.047C18.1522 8.6487 15.3973 5.8938 11.9989 5.8938C8.6006 5.8938 5.8457 8.6487 5.8457 12.047C5.8457 15.4454 8.6006 18.2003 11.9989 18.2003ZM11.9985 16.0314C14.225 16.0314 16.03 14.2264 16.03 11.9999C16.03 9.77344 14.225 7.96851 11.9985 7.96851C9.77204 7.96851 7.9671 9.77344 7.9671 11.9999C7.9671 14.2264 9.77204 16.0314 11.9985 16.0314Z" fill="#959698"/>
<circle cx="18.4596" cy="5.58753" r="1.43811" fill="#959698"/>
</svg>
