<svg width="58" height="25" viewBox="0 0 58 25" fill="none" xmlns="http://www.w3.org/2000/svg">
<rect width="58" height="24.0415" fill="#EC111A"/>
<path d="M1.95312 2.40405V21.6372H5.40908L5.55934 13.0724L7.06193 21.6372H9.0153L10.5179 13.0724V21.6372H17.1293L17.5801 18.7823H20.2847L20.7355 21.6372H27.4972V15.4766H28.2485L29.7511 21.6372H33.207L31.1034 14.4248C32.2876 13.2353 32.847 12.4376 33.207 10.2175L35.1604 21.6372H39.3676L42.0723 4.65794V21.6372H48.6837V18.1813H45.5283V13.8237H48.6837V10.2175H45.5283V6.01027H48.6837V2.40405H38.9169L37.264 14.7253L35.9117 2.40405H32.0049L32.3055 5.25898C31.7044 3.75638 29.7511 2.40405 28.549 2.40405H23.891V19.2331L21.4868 2.40405H16.6785L14.1241 19.8341V2.40405H9.61634L7.96349 11.8704L6.31064 2.40405H1.95312Z" fill="white"/>
<path d="M49.2847 21.6372V2.40405H52.7407V18.3315H55.7459V21.6372H49.2847Z" fill="white"/>
<path d="M19.0831 7.66308L18.0312 15.3263H20.1349L19.0831 7.66308Z" fill="#EC111A"/>
<path d="M27.4976 11.7201V5.70972C28.8815 6.14666 29.7515 6.91179 29.7515 8.86516C29.7515 10.2175 28.9046 11.5298 27.4976 11.7201Z" fill="#EC111A"/>
</svg>
